<?xml version="1.0" encoding="UTF-8"?>
<!DOCTYPE svg PUBLIC "-//W3C//DTD SVG 1.1//EN" "http://www.w3.org/Graphics/SVG/1.1/DTD/svg11.dtd">
<!-- Creator: CorelDRAW X7 -->
<svg xmlns="http://www.w3.org/2000/svg" xml:space="preserve" width="591px" height="531px" version="1.1" style="shape-rendering:geometricPrecision; text-rendering:geometricPrecision; image-rendering:optimizeQuality; fill-rule:evenodd; clip-rule:evenodd"
viewBox="0 0 59100 53190"
 xmlns:xlink="http://www.w3.org/1999/xlink">
 <defs>
  <style type="text/css">
   <![CDATA[
    .fil5 {fill:#FEFEFE}
    .fil3 {fill:#FEFEFE}
    .fil1 {fill:#392D2C}
    .fil0 {fill:#471F1F}
    .fil2 {fill:#4D1E19}
    .fil4 {fill:#F58634}
    .fil7 {fill:#F58634;fill-rule:nonzero}
    .fil6 {fill:#FEFEFE;fill-rule:nonzero}
    .fil8 {fill:white;fill-rule:nonzero}
   ]]>
  </style>
 </defs>
 <g id="Camada_x0020_1">
  <metadata id="CorelCorpID_0Corel-Layer"/>
  <g id="_2015886719632">
   <polygon class="fil0" points="0,23237 8130,24604 9324,38328 1141,35791 "/>
   <polygon class="fil0" points="57906,17552 50286,20895 51479,34618 59100,30691 "/>
   <ellipse class="fil1" cx="29712" cy="26595" rx="26441" ry="26595"/>
   <ellipse class="fil2" cx="29712" cy="26595" rx="26441" ry="26595"/>
   <ellipse class="fil3" cx="29712" cy="26595" rx="24325" ry="24467"/>
   <ellipse class="fil4" cx="29712" cy="26595" rx="22663" ry="22796"/>
   <ellipse class="fil5" cx="29712" cy="26595" rx="16998" ry="17097"/>
   <ellipse class="fil2" cx="29712" cy="26595" rx="15109" ry="15197"/>
   <ellipse class="fil5" cx="29712" cy="26595" rx="13976" ry="14057"/>
   <rect class="fil2" transform="matrix(0.629388 -0.055386 0.035426 0.407287 -0.0204621 22529.4)" width="92070" height="32525"/>
   <polygon class="fil2" points="29562,4885 29978,6183 31335,6181 30236,6981 30657,8277 29562,7473 28466,8277 28887,6981 27789,6181 29145,6183 "/>
   <polygon class="fil2" points="35151,5886 35208,7060 36339,7361 35245,7782 35306,8957 34573,8042 33480,8468 34121,7481 33384,6570 34514,6875 "/>
   <polygon class="fil2" points="40136,8403 39943,9294 40729,9746 39825,9842 39635,10734 39269,9902 38365,10002 39044,9391 38675,8561 39460,9016 "/>
   <polygon class="fil2" points="18985,8391 19661,9004 20446,8549 20077,9380 20755,9990 19851,9890 19486,10722 19296,9830 18391,9734 19178,9282 "/>
   <polygon class="fil2" points="23971,5879 24609,6868 25739,6564 25002,7475 25643,8462 24550,8036 23816,8951 23878,7776 22783,7355 23914,7054 "/>
   <path class="fil6" d="M52318 26025c526,-520 1016,-900 1058,-419 38,435 -690,1469 -2313,1612 -823,73 -45229,4152 -45229,4152 0,0 2320,1039 3038,1455 1695,-1487 41994,-5098 42193,-5116 2084,-183 2638,-1528 2565,-2362 -50,-581 -668,-710 -1094,-270 -501,529 -1025,936 -1498,978 -502,44 -732,-238 -674,-716 89,69 194,125 325,149 522,114 1076,-213 1523,-886 744,-1124 148,-1888 -699,-1814 -514,45 -1274,574 -1837,1677 -21,41 -41,83 -60,124 -298,336 -544,610 -616,683 -140,143 -269,284 -321,236 -50,-43 79,-380 153,-546 210,-498 909,-2134 909,-2134l-928 88 -368 865c-556,638 -1345,1530 -1488,1671 -135,142 -264,284 -315,235 -51,-43 79,-380 146,-546 216,-498 294,-682 410,-971 370,-890 -9,-1117 -464,-1077 -275,24 -1099,351 -2139,1993l796 -1869 -922 81 -526 1234c-270,278 -577,484 -819,346 0,0 278,-587 367,-784 216,-498 -98,-719 -273,-704 -473,42 -1008,1196 -767,1802 -280,634 -618,1143 -951,1172 -263,23 -303,-234 -216,-525 250,-845 727,-2331 727,-2331l-922 88c0,0 -139,438 -303,985 -335,680 -1299,1978 -1614,2006 -339,30 -201,-355 -128,-527 210,-498 1034,-2381 1034,-2381l-928 87 -447 1051c-318,321 -714,633 -1015,604 62,-236 80,-439 89,-605l0 0c29,-411 -90,-898 -411,-869 -152,13 -302,115 -424,274 -23,-140 -69,-260 -174,-251 -484,42 -1188,444 -1813,1608 -416,473 -810,914 -907,1010 -135,142 -263,283 -315,235 -51,-43 73,-379 147,-546 209,-497 248,-530 369,-825 326,-786 -226,-436 -698,-655 -55,-24 -99,-56 -137,-94 317,-413 563,-831 236,-1003 -303,-163 -818,-200 -1120,252 -379,578 122,1055 451,1191 146,58 506,68 252,593 -244,507 -510,1176 -711,1637 -274,640 -80,907 305,873 240,-21 554,-191 1015,-717 134,-151 395,-458 695,-816 -130,856 302,1356 912,1302 642,-56 1291,-575 1844,-1588 61,-118 116,-229 165,-340 272,20 561,-111 835,-307 -145,340 -267,626 -325,759 -279,646 -102,1263 482,1212 467,-41 1355,-1060 1970,-1966 -58,206 -113,388 -159,540 -204,699 39,1263 705,1204 496,-43 987,-495 1825,-2012 262,93 527,32 778,-110l-840 1967 923 -81 10 -18 -10 18c636,-1476 2067,-3081 2406,-3111 198,-18 145,248 -55,721 -226,517 -365,872 -567,1334 -279,640 -80,906 306,872 239,-21 548,-190 1014,-716 200,-228 689,-812 1169,-1389 -205,480 -382,896 -451,1053 -280,640 -80,907 305,873 246,-22 549,-190 1015,-717 111,-127 314,-365 554,-651 -43,790 447,1306 1459,1217 526,-46 1062,-312 1511,-754zm-2789 -3936c356,-31 752,-356 878,-728 127,-372 -56,-652 -418,-620 -357,32 -746,362 -878,734 -126,372 62,646 418,614zm-13740 4961c-304,27 -285,-496 34,-1163 238,-506 588,-945 870,-1147 -83,321 -57,691 162,980 -254,596 -670,1295 -1066,1330zm-5003 -2323c144,-107 280,-232 397,-372 885,-1049 429,-1837 -401,-1764 -408,36 -813,320 -1124,596 131,-313 214,-516 214,-516l-1039 92c0,0 -960,2291 -1377,3251 -2808,590 -3123,2979 -1751,2858 624,-54 1234,-286 1845,-1103 106,476 455,901 1407,817 747,-65 1690,-456 2329,-1631 608,-1118 326,-2129 -500,-2228zm-1493 -662c179,-240 654,-803 1109,-843 572,-50 322,522 -252,1028 -432,376 -962,576 -1208,651 117,-277 239,-565 351,-836zm-3540 4146c-525,47 -15,-1253 1467,-1667 -610,1237 -1105,1636 -1467,1667zm4560 -1750c-442,802 -1079,1261 -1557,1303 -444,39 -841,-329 -647,-938 45,-92 96,-191 139,-296 50,-99 133,-301 246,-554 115,-105 596,-520 1240,-695 787,-217 1028,383 579,1180l0 0zm-6356 -1109c-196,248 -1812,2094 -2023,2302 -135,142 -264,284 -315,235 -57,-43 73,-379 146,-546 210,-497 288,-682 410,-971 370,-890 -15,-1117 -464,-1077 -281,24 -1105,352 -2144,1999 131,-319 199,-485 302,-719 396,-857 -9,-1117 -464,-1077 -275,24 -1099,351 -2139,1999l796 -1875 -922 81 -438 1026c-322,329 -733,660 -1042,631 62,-236 80,-439 89,-606l0 0c29,-410 -90,-897 -411,-869 -152,14 -302,116 -423,274 -24,-140 -70,-260 -175,-251 -520,46 -1292,504 -1949,1876 -657,1371 -164,2239 630,2169 642,-56 1291,-575 1844,-1588 61,-118 116,-229 165,-340 279,21 576,-118 856,-322l-886 2076 923 -81 10 -19 -10 19c636,-1476 2067,-3081 2406,-3111 198,-18 144,242 -56,715 -238,571 -955,2273 -955,2273l922 -81c0,0 44,-104 113,-264 678,-1397 1961,-2818 2276,-2846 199,-17 151,248 -55,721 -220,517 -365,873 -566,1334 -280,640 -80,907 305,873 239,-21 554,-191 1014,-717 434,-488 2186,-2606 2334,-2791 53,-70 3,-580 -104,-452zm-10196 3637c-304,26 -285,-496 34,-1163 238,-506 588,-945 870,-1148 -83,321 -57,692 162,980 -254,596 -670,1296 -1066,1331zm-2242 -2567c144,-107 280,-231 397,-372 886,-1048 429,-1836 -400,-1763 -409,35 -813,320 -1125,596 132,-314 214,-516 214,-516l-1039 91c0,0 -960,2292 -1376,3252 -2808,590 -3124,2979 -1752,2858 625,-55 1234,-286 1846,-1103 106,476 455,900 1406,817 747,-66 1690,-457 2329,-1631 609,-1119 327,-2130 -500,-2229zm-1493 -661c180,-241 654,-803 1110,-843 572,-51 322,522 -252,1028 -432,375 -962,576 -1208,651 117,-277 239,-566 350,-836zm-3539 4146c-526,46 -15,-1253 1466,-1668 -610,1237 -1104,1636 -1466,1668zm4560 -1751c-442,803 -1079,1261 -1558,1303 -444,39 -840,-328 -646,-937 45,-93 95,-192 139,-296 50,-99 132,-302 246,-555 114,-104 596,-520 1239,-694 788,-218 1028,383 580,1179l0 0zm40653 -4710c298,-26 42,689 -304,1039 -254,253 -562,505 -867,307 15,-31 30,-56 39,-86 324,-674 828,-1233 1132,-1260z"/>
   <path class="fil7" d="M52289 25689c526,-520 1016,-900 1058,-419 38,435 -690,1470 -2313,1612 -823,73 -45230,4152 -45230,4152 0,0 2320,1039 3039,1455 1694,-1487 41994,-5098 42193,-5116 2084,-183 2638,-1528 2565,-2362 -51,-581 -668,-710 -1094,-270 -501,529 -1025,936 -1498,978 -502,44 -732,-237 -674,-716 89,69 193,125 325,149 522,114 1076,-213 1523,-886 744,-1124 148,-1888 -699,-1814 -514,45 -1274,574 -1837,1677 -21,41 -41,83 -60,124 -298,336 -544,610 -616,683 -141,143 -270,284 -321,236 -51,-43 79,-380 153,-546 209,-498 908,-2134 908,-2134l-927 88 -368 865c-556,638 -1345,1530 -1489,1671 -134,142 -263,284 -314,235 -51,-43 78,-380 146,-546 216,-498 294,-682 410,-971 370,-890 -9,-1117 -464,-1077 -275,24 -1099,351 -2139,1993l796 -1869 -922 81 -527 1234c-269,278 -576,484 -818,346 0,0 278,-587 367,-784 215,-498 -98,-719 -273,-704 -473,42 -1008,1196 -767,1802 -280,634 -618,1143 -951,1172 -263,23 -303,-233 -216,-525 250,-845 726,-2331 726,-2331l-922 88c0,0 -138,438 -302,985 -335,680 -1299,1978 -1614,2006 -339,30 -202,-355 -128,-527 209,-498 1034,-2381 1034,-2381l-928 87 -447 1051c-318,321 -715,633 -1015,604 62,-236 79,-439 88,-605l0 0c30,-411 -89,-897 -410,-869 -152,13 -302,115 -424,274 -24,-140 -69,-260 -175,-251 -484,43 -1187,444 -1813,1608 -416,473 -809,914 -906,1010 -135,142 -264,284 -315,235 -51,-43 73,-379 147,-546 209,-497 248,-530 369,-825 326,-786 -226,-436 -698,-655 -55,-24 -99,-56 -138,-94 317,-413 563,-831 237,-1003 -303,-163 -818,-200 -1120,252 -379,578 121,1055 451,1191 146,58 506,68 252,594 -245,506 -510,1175 -711,1636 -274,640 -80,907 305,873 240,-21 554,-191 1015,-717 134,-151 394,-458 695,-816 -130,856 302,1356 912,1302 642,-56 1291,-575 1844,-1588 60,-118 115,-229 165,-340 272,20 561,-111 835,-307 -145,340 -268,626 -325,759 -280,646 -102,1263 481,1212 468,-41 1356,-1060 1971,-1966 -59,206 -113,388 -159,540 -204,699 39,1263 705,1205 496,-44 986,-496 1825,-2013 261,93 527,32 778,-110l-840 1967 922 -81 11 -18 -11 18c637,-1476 2068,-3081 2407,-3111 198,-17 145,248 -55,721 -226,517 -366,872 -567,1334 -279,640 -80,906 306,872 239,-21 548,-190 1014,-716 200,-228 689,-812 1169,-1388 -205,479 -382,895 -451,1052 -280,640 -80,907 305,873 245,-22 548,-190 1015,-716 111,-128 313,-366 554,-652 -43,790 447,1306 1459,1217 526,-46 1061,-312 1511,-754zm-2789 -3936c356,-31 752,-356 878,-728 126,-372 -57,-652 -419,-620 -356,32 -745,362 -877,734 -127,372 62,646 418,614zm-13741 4961c-303,27 -284,-495 34,-1163 239,-506 589,-945 871,-1147 -84,321 -57,691 162,980 -254,596 -670,1295 -1067,1330zm-5002 -2323c143,-107 279,-232 397,-372 885,-1049 428,-1837 -401,-1764 -408,36 -813,320 -1125,596 132,-313 215,-516 215,-516l-1040 92c0,0 -959,2291 -1376,3251 -2808,591 -3124,2979 -1751,2859 624,-55 1234,-287 1845,-1104 106,476 455,901 1406,817 748,-65 1690,-456 2329,-1631 609,-1118 327,-2129 -499,-2228zm-1493 -661c179,-241 653,-804 1109,-844 572,-50 322,522 -252,1028 -432,376 -962,576 -1208,651 117,-276 239,-565 351,-835zm-3540 4145c-526,47 -15,-1253 1467,-1667 -610,1237 -1105,1636 -1467,1667zm4560 -1750c-442,802 -1079,1261 -1558,1303 -443,39 -840,-329 -646,-938 45,-92 95,-191 139,-296 50,-99 133,-301 246,-554 114,-105 596,-520 1240,-695 787,-217 1027,383 579,1180l0 0zm-6356 -1109c-196,248 -1812,2094 -2024,2302 -134,142 -263,284 -315,235 -56,-43 73,-379 147,-546 210,-497 288,-682 410,-971 370,-890 -15,-1117 -464,-1077 -281,25 -1105,352 -2145,1999 132,-319 200,-485 303,-719 396,-857 -9,-1117 -465,-1077 -274,24 -1099,351 -2138,1999l796 -1875 -922 81 -438 1026c-322,329 -733,660 -1042,631 62,-236 79,-439 88,-606l0 0c30,-410 -89,-897 -410,-869 -152,14 -302,116 -424,274 -24,-140 -69,-260 -174,-251 -520,46 -1292,505 -1949,1876 -658,1372 -164,2239 630,2169 642,-56 1291,-575 1844,-1588 60,-118 115,-229 165,-340 279,21 576,-118 856,-322l-886 2076 922 -81 10 -18 -10 18c637,-1476 2068,-3081 2406,-3111 199,-18 145,242 -55,715 -239,571 -955,2273 -955,2273l922 -81c0,0 44,-104 112,-264 679,-1397 1961,-2818 2277,-2846 198,-17 151,248 -55,721 -220,517 -365,873 -567,1334 -279,640 -80,907 306,873 239,-21 554,-191 1014,-717 434,-488 2185,-2606 2334,-2791 53,-70 2,-580 -104,-452zm-10197 3637c-303,26 -284,-496 34,-1163 239,-506 589,-945 871,-1148 -84,321 -57,692 162,980 -254,596 -670,1296 -1067,1331zm-2241 -2567c144,-107 280,-231 397,-372 886,-1048 429,-1836 -400,-1763 -409,36 -814,320 -1125,596 132,-314 214,-516 214,-516l-1039 91c0,0 -960,2292 -1376,3252 -2808,590 -3124,2979 -1752,2858 625,-55 1234,-286 1845,-1103 107,476 455,901 1407,817 747,-66 1690,-457 2329,-1631 609,-1119 326,-2130 -500,-2229zm-1493 -661c179,-241 654,-803 1109,-843 573,-51 322,522 -251,1028 -433,375 -962,576 -1209,651 117,-277 239,-566 351,-836zm-3540 4146c-525,46 -14,-1253 1467,-1668 -610,1237 -1105,1636 -1467,1668zm4560 -1751c-442,803 -1078,1261 -1557,1303 -444,39 -840,-328 -646,-937 45,-93 95,-192 139,-296 50,-99 132,-302 246,-554 114,-105 596,-520 1239,-695 787,-218 1028,383 579,1179l0 0zm40654 -4710c297,-26 42,689 -304,1039 -255,253 -562,505 -868,307 15,-31 31,-56 40,-86 324,-674 828,-1233 1132,-1260z"/>
   <g>
    <path class="fil8" d="M1004 23792c-78,7 -145,-35 -151,-92 -5,-57 54,-109 131,-115l20 207zm1388 -320l20 207 -1408 113 -20 -207 1408 -113zm0 0c78,-7 145,35 151,92 5,57 -54,109 -131,115l-20 -207zm864 139c-77,6 -145,-35 -150,-93 -6,-57 53,-108 131,-115l19 208zm1388 -321l20 207 -1408 114 -19 -208 1407 -113zm0 0c78,-7 145,35 151,92 5,57 -54,109 -131,115l-20 -207zm864 139c-77,6 -145,-35 -150,-92 -6,-58 53,-109 131,-115l19 207zm1388 -321l20 207 -1408 114 -19 -207 1407 -114zm0 0c78,-6 146,35 151,92 5,57 -53,109 -131,115l-20 -207zm865 139c-78,6 -146,-35 -151,-92 -5,-57 53,-109 131,-115l20 207zm1388 -321l19 207 -1407 114 -20 -207 1408 -114zm0 0c77,-6 145,35 150,92 6,58 -53,109 -131,115l-19 -207zm864 139c-78,7 -146,-35 -151,-92 -5,-57 53,-109 131,-115l20 207zm1388 -321l19 208 -1407 113 -20 -207 1408 -114zm0 0c77,-6 145,35 150,93 6,57 -53,108 -131,115l-19 -208zm864 139c-78,7 -145,-35 -151,-92 -5,-57 54,-109 131,-115l20 207zm1388 -320l20 207 -1408 113 -20 -207 1408 -113zm0 0c78,-7 145,35 151,92 5,57 -54,109 -131,115l-20 -207zm864 139c-78,6 -145,-35 -150,-93 -6,-57 53,-108 131,-115l19 208zm1388 -321l20 207 -1408 114 -19 -208 1407 -113zm0 0c78,-6 145,35 151,92 5,57 -54,109 -131,115l-20 -207zm864 139c-77,6 -145,-35 -150,-92 -6,-58 53,-109 131,-115l19 207zm1388 -321l20 207 -1408 114 -19 -207 1407 -114zm0 0c78,-6 146,35 151,92 5,58 -53,109 -131,115l-20 -207zm865 139c-78,6 -146,-35 -151,-92 -5,-57 53,-109 131,-115l20 207zm1388 -321l20 208 -1408 113 -20 -207 1408 -114zm0 0c78,-6 145,35 150,93 6,57 -53,108 -130,115l-20 -208zm864 139c-77,7 -145,-35 -150,-92 -6,-57 53,-109 131,-115l19 207zm1388 -321l20 208 -1408 113 -19 -207 1407 -114zm0 0c78,-6 146,36 151,93 5,57 -53,108 -131,115l-20 -208zm865 140c-78,6 -146,-36 -151,-93 -5,-57 53,-109 131,-115l20 208zm1388 -321l19 207 -1407 114 -20 -208 1408 -113zm0 0c77,-7 145,35 150,92 6,57 -53,109 -131,115l-19 -207zm864 139c-78,6 -145,-35 -151,-93 -5,-57 54,-108 131,-115l20 208zm1388 -321l20 207 -1408 114 -20 -208 1408 -113zm0 0c78,-6 145,35 151,92 5,57 -54,109 -131,115l-20 -207zm864 139c-77,6 -145,-35 -150,-92 -5,-58 53,-109 131,-115l19 207zm1389 -321l19 207 -1408 114 -19 -207 1408 -114zm0 0c77,-6 145,35 150,92 6,57 -53,109 -131,115l-19 -207zm864 139c-78,6 -145,-35 -151,-92 -5,-57 54,-109 131,-115l20 207zm1388 -321l20 207 -1408 114 -20 -207 1408 -114zm0 0c78,-6 145,35 151,92 5,58 -54,109 -131,115l-20 -207zm864 139c-77,6 -145,-35 -150,-92 -6,-57 53,-109 131,-115l19 207zm1388 -321l20 207 -1408 114 -19 -207 1407 -114zm0 0c78,-6 146,35 151,92 5,58 -53,109 -131,115l-20 -207zm865 139c-78,6 -146,-35 -151,-92 -5,-57 53,-109 131,-115l20 207zm1388 -321l20 208 -1408 113 -20 -207 1408 -114zm0 0c78,-6 145,35 150,92 6,58 -53,109 -130,116l-20 -208zm864 139c-77,7 -145,-35 -150,-92 -6,-57 53,-109 131,-115l19 207zm1388 -321l20 208 -1408 113 -19 -207 1407 -114zm0 0c78,-6 146,35 151,93 5,57 -53,108 -131,115l-20 -208zm865 139c-78,7 -146,-35 -151,-92 -5,-57 53,-109 131,-115l20 207zm1388 -321l19 208 -1407 113 -20 -207 1408 -114zm0 0c77,-6 145,35 150,93 6,57 -53,108 -131,115l-19 -208zm864 139c-78,7 -145,-35 -151,-92 -5,-57 54,-109 131,-115l20 207zm1388 -321l20 208 -1408 113 -20 -207 1408 -114zm0 0c78,-6 145,36 151,93 5,57 -54,109 -131,115l-20 -208zm864 140c-77,6 -145,-36 -150,-93 -5,-57 53,-108 131,-115l19 208zm1389 -321l19 207 -1408 114 -19 -208 1408 -113zm0 0c77,-7 145,35 150,92 6,57 -53,109 -131,115l-19 -207zm864 139c-78,6 -145,-35 -151,-93 -5,-57 54,-108 131,-115l20 208zm1388 -321l20 207 -1408 114 -20 -208 1408 -113zm0 0c78,-7 145,35 151,92 5,57 -54,109 -131,115l-20 -207zm864 139c-77,6 -145,-35 -150,-93 -6,-57 53,-108 131,-115l19 208zm1388 -321l20 207 -1408 114 -19 -208 1407 -113zm0 0c78,-7 146,35 151,92 5,57 -53,109 -131,115l-20 -207zm865 139c-78,6 -146,-35 -151,-92 -5,-58 53,-109 131,-115l20 207zm1388 -321l20 207 -1408 114 -20 -207 1408 -114zm0 0c78,-6 145,35 150,92 6,57 -53,109 -130,115l-20 -207zm864 139c-77,6 -145,-35 -150,-92 -6,-58 53,-109 131,-115l19 207zm1388 -321l20 207 -1408 114 -19 -207 1407 -114zm0 0c78,-6 146,35 151,92 5,57 -53,109 -131,115l-20 -207zm865 139c-78,6 -146,-35 -151,-92 -5,-58 53,-109 131,-115l20 207zm1388 -321l19 207 -1407 114 -20 -207 1408 -114zm0 0c77,-7 145,35 150,92 6,57 -53,109 -131,115l-19 -207zm546 193c-5,-57 54,-109 131,-115 78,-6 146,35 151,92l-282 23zm380 1013l-281 23 -99 -1036 282 -23 98 1036zm0 0c5,57 -53,109 -131,115 -78,6 -145,-35 -150,-92l281 -23zm-223 645c-5,-57 54,-109 131,-115 78,-7 146,35 151,92l-282 23zm380 1013l-281 23 -99 -1036 282 -23 98 1036zm0 0c6,57 -53,109 -131,115 -77,6 -145,-35 -150,-92l281 -23zm-223 644c-5,-57 54,-108 131,-115 78,-6 146,36 151,93l-282 22zm380 1014l-281 22 -99 -1036 282 -22 98 1036zm0 0c6,57 -53,108 -131,115 -77,6 -145,-36 -150,-93l281 -22zm-222 644c-6,-57 53,-109 131,-115 77,-6 145,35 150,92l-281 23zm379 1013l-281 23 -98 -1036 281 -23 98 1036zm0 0c6,57 -53,109 -131,115 -77,6 -145,-35 -150,-92l281 -23zm-222 645c-6,-58 53,-109 131,-115 77,-7 145,35 150,92l-281 23zm379 1013l-281 23 -98 -1036 281 -23 98 1036zm0 0c6,57 -53,109 -131,115 -77,6 -145,-35 -150,-92l281 -23zm-222 644c-5,-57 53,-108 131,-115 78,-6 145,35 150,93l-281 22zm380 1014l-282 22 -98 -1036 281 -22 99 1036zm0 0c5,57 -54,108 -131,114 -78,7 -145,-35 -151,-92l282 -22zm-223 644c-5,-57 54,-109 131,-115 78,-6 145,35 151,92l-282 23zm27 283l-27 -283 282 -23 27 283 -131 115 -151 -92zm282 -23l10 104 -141 11 131 -115zm-1155 198l-19 -208 1023 -82 20 207 -1024 83zm0 0c-77,6 -145,-35 -150,-93 -5,-57 53,-108 131,-115l19 208zm-864 -139c78,-7 146,35 151,92 5,57 -53,109 -131,115l-20 -207zm-1388 321l-19 -208 1407 -113 20 207 -1408 114zm0 0c-77,6 -145,-36 -150,-93 -6,-57 53,-108 131,-115l19 208zm-864 -140c78,-6 145,36 151,93 5,57 -54,109 -131,115l-20 -208zm-1388 321l-20 -207 1408 -114 20 208 -1408 113zm0 0c-78,7 -145,-35 -150,-92 -6,-57 53,-109 130,-115l20 207zm-864 -139c78,-6 145,35 151,93 5,57 -54,108 -131,115l-20 -208zm-1388 321l-20 -207 1408 -114 20 208 -1408 113zm0 0c-78,6 -145,-35 -151,-92 -5,-57 54,-109 131,-115l20 207zm-864 -139c77,-6 145,35 150,92 6,58 -53,109 -131,115l-19 -207zm-1388 321l-20 -207 1408 -114 19 207 -1407 114zm0 0c-78,6 -146,-35 -151,-92 -5,-58 53,-109 131,-115l20 207zm-864 -139c77,-6 145,35 150,92 5,57 -53,109 -131,115l-19 -207zm-1388 321l-20 -208 1408 -113 19 207 -1407 114zm0 0c-78,6 -146,-35 -151,-93 -5,-57 53,-108 131,-115l20 208zm-865 -139c78,-7 146,35 151,92 5,57 -53,109 -131,115l-20 -207zm-1388 321l-19 -208 1407 -113 20 207 -1408 114zm0 0c-77,6 -145,-36 -150,-93 -6,-57 53,-109 131,-115l19 208zm-864 -140c78,-6 145,36 151,93 5,57 -54,108 -131,115l-20 -208zm-1388 321l-20 -207 1408 -114 20 208 -1408 113zm0 0c-78,7 -145,-35 -151,-92 -5,-57 54,-109 131,-115l20 207zm-864 -139c77,-6 145,35 150,93 6,57 -53,108 -131,115l-19 -208zm-1388 321l-20 -207 1408 -114 19 208 -1407 113zm0 0c-78,6 -146,-35 -151,-92 -5,-57 53,-109 131,-115l20 207zm-865 -139c78,-6 146,35 151,92 5,58 -53,109 -131,115l-20 -207zm-1388 321l-19 -207 1407 -114 20 207 -1408 114zm0 0c-77,6 -145,-35 -150,-92 -6,-58 53,-109 131,-115l19 207zm-864 -139c78,-6 145,35 150,92 6,57 -53,109 -130,115l-20 -207zm-1388 321l-20 -208 1408 -113 20 207 -1408 114zm0 0c-78,6 -146,-35 -151,-93 -5,-57 53,-108 131,-115l20 208zm-865 -139c78,-7 146,35 151,92 5,57 -53,109 -131,115l-20 -207zm-1388 320l-19 -207 1407 -113 20 207 -1408 113zm0 0c-77,7 -145,-35 -150,-92 -6,-57 53,-109 131,-115l19 207zm-864 -139c78,-6 145,35 151,93 5,57 -54,108 -131,115l-20 -208zm-1388 321l-20 -207 1408 -114 20 208 -1408 113zm0 0c-78,7 -145,-35 -151,-92 -5,-57 54,-109 131,-115l20 207zm-864 -139c77,-6 145,35 150,93 6,57 -53,108 -131,115l-19 -208zm-1389 321l-19 -207 1408 -114 19 208 -1408 113zm0 0c-77,7 -145,-35 -150,-92 -5,-57 53,-109 131,-115l19 207zm-864 -139c78,-6 145,35 151,93 5,57 -54,108 -131,115l-20 -208zm-1388 321l-20 -207 1408 -114 20 208 -1408 113zm0 0c-78,6 -145,-35 -151,-92 -5,-57 54,-109 131,-115l20 207zm-864 -139c77,-6 145,35 150,92 6,58 -53,109 -131,115l-19 -207zm-1388 321l-20 -207 1408 -114 19 207 -1407 114zm0 0c-78,6 -146,-35 -151,-92 -5,-57 53,-109 131,-115l20 207zm-865 -139c78,-6 146,35 151,92 5,58 -53,109 -131,115l-20 -207zm-1388 321l-19 -207 1407 -114 20 207 -1408 114zm0 0c-77,6 -145,-35 -150,-92 -6,-57 53,-109 131,-115l19 207zm-864 -139c78,-6 145,35 150,92 6,57 -53,109 -130,115l-20 -207zm-1388 321l-20 -207 1408 -114 20 207 -1408 114zm0 0c-78,6 -146,-35 -151,-92 -5,-58 53,-109 131,-115l20 207zm-865 -139c78,-6 146,35 151,92 5,57 -53,109 -131,115l-20 -207zm-1388 321l-19 -207 1407 -114 20 207 -1408 114zm0 0c-77,6 -145,-35 -150,-92 -6,-58 53,-109 131,-115l19 207zm-864 -139c78,-7 145,35 151,92 5,57 -54,109 -131,115l-20 -207zm-1388 321l-20 -208 1408 -113 20 207 -1408 114zm0 0c-78,6 -145,-35 -151,-93 -5,-57 54,-108 131,-115l20 208zm-864 -139c77,-7 145,35 150,92 6,57 -53,109 -131,115l-19 -207zm-1389 321l-19 -208 1408 -113 19 207 -1408 114zm0 0c-77,6 -145,-35 -150,-93 -5,-57 53,-108 131,-115l19 208zm-864 -139c78,-7 145,35 151,92 5,57 -54,109 -131,115l-20 -207zm-1388 321l-20 -208 1408 -113 20 207 -1408 114zm0 0c-78,6 -145,-36 -151,-93 -5,-57 54,-108 131,-115l20 208zm-864 -140c77,-6 145,36 150,93 6,57 -53,109 -131,115l-19 -208zm-1388 322l-20 -208 1408 -114 19 208 -1407 114zm0 0c-78,6 -146,-36 -151,-93 -5,-57 53,-109 131,-115l20 208zm-865 -140c78,-6 146,35 151,93 5,57 -53,108 -131,115l-20 -208zm-1388 321l-19 -207 1407 -114 20 208 -1408 113zm0 0c-77,7 -145,-35 -150,-92 -6,-57 53,-109 131,-115l19 207zm-864 -139c78,-6 145,35 150,93 6,57 -53,108 -130,115l-20 -208zm-1388 321l-20 -207 1408 -114 20 208 -1408 113zm0 0c-78,7 -146,-35 -151,-92 -5,-57 53,-109 131,-115l20 207zm-865 -139c78,-6 146,36 151,93 5,57 -53,109 -131,115l-20 -208zm-204 17l204 -17 20 208 -205 16 -150 -92 131 -115zm19 207l-141 12 -9 -104 150 92zm-234 -977l281 -23 84 885 -281 23 -84 -885zm0 0c-6,-57 53,-109 131,-115 77,-6 145,35 150,92l-281 23zm222 -644c6,57 -53,108 -131,115 -77,6 -145,-35 -150,-93l281 -22zm-379 -1014l281 -22 98 1036 -281 22 -98 -1036zm0 0c-6,-57 53,-108 131,-115 77,-6 145,35 150,93l-281 22zm222 -644c6,57 -53,109 -131,115 -77,6 -145,-35 -150,-92l281 -23zm-379 -1013l281 -23 98 1036 -281 23 -98 -1036zm0 0c-6,-58 53,-109 131,-115 77,-7 145,35 150,92l-281 23zm222 -645c6,58 -53,109 -131,115 -77,7 -145,-35 -150,-92l281 -23zm-380 -1013l282 -23 98 1036 -281 23 -99 -1036zm0 0c-5,-57 54,-109 131,-115 78,-6 146,35 151,92l-282 23zm223 -644c5,57 -53,108 -131,115 -77,6 -145,-35 -150,-93l281 -22zm-380 -1014l282 -22 98 1036 -281 22 -99 -1036zm0 0c-5,-57 54,-108 131,-115 78,-6 146,35 151,93l-282 22zm223 -644c5,57 -53,109 -131,115 -78,6 -145,-35 -151,-92l282 -23zm-380 -1013l282 -23 98 1036 -282 23 -98 -1036zm0 0c-5,-58 53,-109 131,-115 78,-7 145,35 151,92l-282 23zm223 -645c5,58 -54,109 -131,115 -78,7 -145,-35 -151,-92l282 -23zm-54 -566l54 566 -282 23 -54 -566 131 -115 151 92zm-282 23l-9 -104 140 -11 -131 115z"/>
   </g>
  </g>
 </g>
</svg>
